
        <svg xmlns="http://www.w3.org/2000/svg" xmlns:xlink="http://www.w3.org/1999/xlink" version="1.1" width="3117.977528089888" 
        height="3168.5393258426966" viewBox="0 0 3117.977528089888 3168.5393258426966">
			<rect fill="#ffffff" width="3117.977528089888" height="3168.5393258426966"/>
			<g transform="scale(8.426966292134832) translate(10, 10)">
				<defs id="SvgjsDefs22662"><linearGradient id="SvgjsLinearGradient22669"><stop id="SvgjsStop22670" stop-color="#7d141d" offset="0"></stop><stop id="SvgjsStop22671" stop-color="#ff1e27" offset="1"></stop></linearGradient><linearGradient id="SvgjsLinearGradient22672"><stop id="SvgjsStop22673" stop-color="#2d388a" offset="0"></stop><stop id="SvgjsStop22674" stop-color="#00aeef" offset="1"></stop></linearGradient><linearGradient id="SvgjsLinearGradient22675"><stop id="SvgjsStop22676" stop-color="#2d388a" offset="0"></stop><stop id="SvgjsStop22677" stop-color="#00aeef" offset="1"></stop></linearGradient></defs><g id="SvgjsG22663" featureKey="rootContainer" transform="matrix(1,0,0,1,0,0)" fill="url(#SvgjsLinearGradient22669)"><path xmlns="http://www.w3.org/2000/svg" fill-rule="evenodd" d="M5,65 L175,0 L345, 65 L175, 10 z M5,276 L175,356 L345,271 L175, 346 z"></path></g><g id="SvgjsG22664" featureKey="1p4tPl-0" transform="matrix(1.5456810300853845,0,0,1.5456810300853845,105.50068935659489,77.76438913683694)" fill="url(#SvgjsLinearGradient22672)"><path xmlns="http://www.w3.org/2000/svg" fill="url(#SvgjsLinearGradient22672)" d="M53.623,64.798c-5.135,4.203-11.694,6.729-18.832,6.729c-16.426,0-29.789-13.363-29.789-29.789  c0-16.427,13.363-29.79,29.789-29.79c9.547,0,18.051,4.519,23.507,11.521c0.916-0.985,1.932-1.877,3.027-2.664  C55.127,12.963,45.538,7.916,34.791,7.916C16.144,7.916,0.97,23.087,0.97,41.737c0,18.647,15.174,33.82,33.821,33.82  c6.966,0,13.447-2.119,18.832-5.743V64.798z"></path><path xmlns="http://www.w3.org/2000/svg" fill="url(#SvgjsLinearGradient22672)" d="M34.935,49.127l-3.1,5.593c-0.287,0.517-0.83,0.831-1.41,0.831c-0.076,0-0.152-0.007-0.229-0.02  c-0.662-0.092-1.197-0.586-1.344-1.238l-2.35-10.413l-2.195,4.184c-0.279,0.531-0.828,0.863-1.428,0.863h-5.557  c3.283,5.673,9.273,10.947,16.662,13.443c7.3-2.468,13.23-7.645,16.536-13.243H34.935z"></path><path xmlns="http://www.w3.org/2000/svg" fill="url(#SvgjsLinearGradient22672)" d="M21.904,45.7l3.78-7.197c0.313-0.598,0.966-0.939,1.638-0.85c0.67,0.089,1.214,0.586,1.362,1.244  l2.383,10.557l1.508-2.721c0.284-0.513,0.824-0.83,1.41-0.83h18.129c2.212-5.563,1.67-11.108-2.847-14.48  c-8.37-6.246-15.282,2.625-15.282,2.625s-6.912-8.871-15.284-2.625c-4.462,3.332-5.045,8.783-2.925,14.277H21.904z"></path><path xmlns="http://www.w3.org/2000/svg" fill="url(#SvgjsLinearGradient22672)" d="M72.993,21.081c-8.861,0-16.041,7.181-16.041,16.039c0,8.857,7.18,16.038,16.041,16.038  c8.857,0,16.036-7.181,16.036-16.038C89.029,28.262,81.851,21.081,72.993,21.081z M59.798,31.999  c0.579-1.484,1.39-2.848,2.403-4.039h4.255c-0.176,0.746-0.232,1.531-0.139,2.337c0.072,0.6,0.227,1.167,0.44,1.702H59.798z   M73.601,34.624c-2.829,0.334-5.391-1.686-5.728-4.513c-0.335-2.826,1.684-5.39,4.509-5.726c2.828-0.335,5.39,1.684,5.726,4.51  C78.444,31.722,76.425,34.286,73.601,34.624z M79.233,31.999c0.404-1.01,0.569-2.133,0.433-3.289  c-0.03-0.256-0.079-0.505-0.136-0.75h4.251c1.016,1.191,1.828,2.555,2.403,4.039H79.233z"></path><circle xmlns="http://www.w3.org/2000/svg" fill="url(#SvgjsLinearGradient22672)" cx="72.991" cy="29.503" r="1.903"></circle><path xmlns="http://www.w3.org/2000/svg" fill="url(#SvgjsLinearGradient22672)" d="M65.651,63.645l5.314,4.029l-2.358-12.067h-3.885l2.61,5.842c0.146,0.326,0.06,0.71-0.214,0.94  L65.651,63.645z"></path><path xmlns="http://www.w3.org/2000/svg" fill="url(#SvgjsLinearGradient22672)" d="M79.601,55.606h-3.887l-2.356,12.067l5.313-4.029l-1.465-1.256c-0.274-0.23-0.36-0.614-0.215-0.94  L79.601,55.606z"></path><polygon xmlns="http://www.w3.org/2000/svg" fill="url(#SvgjsLinearGradient22672)" points="70.251,55.606 72.161,65.389 74.072,55.606 "></polygon><path xmlns="http://www.w3.org/2000/svg" fill="url(#SvgjsLinearGradient22672)" d="M83.035,55.606h-0.334h-1.335l-2.657,5.95l1.771,1.512c0.184,0.157,0.287,0.392,0.28,0.637  c-0.007,0.242-0.123,0.472-0.318,0.618l-7.476,5.671v12.09h5.191h4.874c2.925,0,5.29-2.367,5.29-5.293V60.897  C88.324,57.975,85.959,55.606,83.035,55.606z M85.044,75.629h-2.397v2.395h-3.251v-2.395h-2.397v-3.253h2.397v-2.396h3.251v2.396  h2.397V75.629z"></path><path xmlns="http://www.w3.org/2000/svg" fill="url(#SvgjsLinearGradient22672)" d="M71.356,69.994l-7.475-5.671c-0.195-0.146-0.312-0.376-0.318-0.618c-0.007-0.245,0.098-0.479,0.282-0.637  l1.771-1.512l-2.66-5.95h-0.01c-2.924,0-5.292,2.368-5.292,5.291v15.894c0,2.926,2.368,5.293,5.294,5.293h4.873h3.535V69.994z"></path></g><g id="SvgjsG22665" featureKey="dYASrj-0" transform="matrix(2.7219625433479915,0,0,2.7219625433479915,-4.971663121356813,211.39018728326005)" fill="url(#SvgjsLinearGradient22675)"><path d="M10.723 5.888999999999999 l2.9297 0 l0 14.111 l-2.9297 0 l0 -5.8008 l-5.9668 0 l0 5.8008 l-2.9297 0 l0 -14.111 l2.9297 0 l0 5.7617 l5.9668 0 l0 -5.7617 z M26.376515625 14.834 l-0.029297 0.67383 l-7.4414 0 c0.11719 1.6699 1.2305 2.4707 2.5684 2.4707 c1.0059 0 1.7871 -0.46875 2.168 -1.3574 l2.5781 0.38086 c-0.66406 2.0313 -2.4707 3.1934 -4.7266 3.1934 c-3.2422 0 -5.3613 -1.9141 -5.3613 -5.2148 s2.1777 -5.2344 5.2734 -5.2344 c2.8418 0 4.9609 1.5723 4.9707 5.0879 z M21.425815625 11.7383 c-1.2793 0 -2.168 0.5957 -2.4414 1.9336 l4.6094 0 c-0.14648 -1.2793 -1.0156 -1.9336 -2.168 -1.9336 z M36.748046875 17.2754 c0 1.2305 0.11719 2.0117 0.24414 2.4512 l0 0.27344 l-2.627 0 l-0.22461 -1.0938 c-0.75195 0.9082 -2.0508 1.2891 -3.2227 1.2891 c-1.582 0 -3.125 -0.70313 -3.125 -2.793 c0 -2.0801 1.5527 -2.7832 3.6523 -3.2422 l1.6504 -0.37109 c0.71289 -0.16602 0.9668 -0.41016 0.9668 -0.82031 c0 -0.98633 -0.89844 -1.2598 -1.6895 -1.2598 c-1.0156 0 -1.7871 0.40039 -1.9629 1.5332 l-2.4902 -0.44922 c0.41992 -2.0801 1.9434 -3.0273 4.6094 -3.0273 c2.0117 0 4.2188 0.5957 4.2188 3.623 l0 3.8867 z M31.796846875 18.291 c1.3379 0 2.4121 -0.88867 2.4121 -2.8809 l-2.3828 0.67383 c-0.78125 0.18555 -1.3477 0.45898 -1.3477 1.1328 c0 0.72266 0.5957 1.0742 1.3184 1.0742 z M39.48244375 20 l0 -15 l2.8418 0 l0 15 l-2.8418 0 z M48.974596875 20 c-1.9531 0 -3.0664 -1.1328 -3.0664 -3.1348 l0 -4.7461 l-1.9727 0 l0 -2.1582 l0.63477 0 c1.0645 0 1.6504 -0.41016 1.6504 -1.9141 l0 -1.3281 l2.5391 0 l0 3.2422 l2.0703 0 l0 2.1582 l-2.0703 0 l0 4.4434 c0 0.89844 0.43945 1.2988 1.1621 1.2988 l0.9082 0 l0 2.1387 l-1.8555 0 z M59.082034375 9.766 c2.2461 0 3.5938 1.25 3.5938 3.7598 l0 6.4746 l-2.8223 0 l0 -6.0156 c0 -1.4746 -0.82031 -1.9629 -1.8262 -1.9629 c-1.0449 0 -2.1875 0.51758 -2.207 2.4414 l0 5.5371 l-2.8125 0 l0 -15 l2.8125 0 l0 6.1621 c0.71289 -0.86914 1.8359 -1.3965 3.2617 -1.3965 z M74.07178125 8.467 l-5.3711 0 l0 3.2031 l4.6387 0 l0 2.5488 l-4.6387 0 l0 5.7813 l-2.9492 0 l0 -14.111 l8.3203 0 l0 2.5781 z M80.87889375 20.19531 c-3.1934 0 -5.498 -1.9434 -5.498 -5.2246 c0 -3.2617 2.2852 -5.2051 5.498 -5.2051 c3.2324 0 5.5078 1.9434 5.5078 5.2051 c0 3.2813 -2.2852 5.2246 -5.5078 5.2246 z M80.84959375 17.959 c1.6309 0 2.7441 -1.1914 2.7441 -2.9883 s-1.1133 -2.9883 -2.7441 -2.9883 c-1.5723 0 -2.6758 1.1914 -2.6758 2.9883 s1.1035 2.9883 2.6758 2.9883 z M91.171884375 11.5527 c0.50781 -0.88867 1.8262 -1.709 3.2813 -1.709 l0 2.5098 c-2.1289 0 -3.1445 0.625 -3.1445 2.7539 l0 4.8926 l-2.832 0 l0 -10.039 l2.6953 0 l0 1.5918 z M107.0604375 5.888999999999999 l-4.6387 7.3535 l0 6.7578 l-2.9395 0 l0 -6.6895 l-4.668 -7.4219 l3.2422 0 l2.8809 4.8047 l2.8906 -4.8047 l3.2324 0 z M113.349596875 20.19531 c-3.1934 0 -5.498 -1.9434 -5.498 -5.2246 c0 -3.2617 2.2852 -5.2051 5.498 -5.2051 c3.2324 0 5.5078 1.9434 5.5078 5.2051 c0 3.2813 -2.2852 5.2246 -5.5078 5.2246 z M113.320296875 17.959 c1.6309 0 2.7441 -1.1914 2.7441 -2.9883 s-1.1133 -2.9883 -2.7441 -2.9883 c-1.5723 0 -2.6758 1.1914 -2.6758 2.9883 s1.1035 2.9883 2.6758 2.9883 z M127.5976875 9.961 l2.8125 0 l0 10.039 l-2.666 0 l-0.068359 -1.2109 c-0.70313 0.88867 -1.8164 1.4063 -3.1934 1.4063 c-2.4121 0 -3.7402 -1.2598 -3.7402 -3.4766 l0 -6.7578 l2.8223 0 l0 6.1523 c0 1.3281 0.83008 1.8164 1.8066 1.8164 c1.1621 0 2.2168 -0.58594 2.2266 -2.4316 l0 -5.5371 z"></path></g>
			</g>
		</svg>
	